<svg width="52" height="52" viewBox="0 0 52 52" fill="none" xmlns="http://www.w3.org/2000/svg">
<path d="M48.1682 9.97125L46.5372 35.5827L30.9431 2L48.1682 9.97125ZM37.3672 43.0882L25.5842 49.8115L13.801 43.0882L16.1975 37.2802H34.9706L37.3672 43.0882ZM25.5842 14.7475L31.7585 29.7582H19.4097L25.5842 14.7475ZM4.61429 35.5827L2.99998 9.97125L20.2251 2L4.61429 35.5827Z" fill="currentColor"/>
<path d="M48.1682 9.97125L46.5372 35.5827L30.9431 2L48.1682 9.97125ZM37.3672 43.0882L25.5842 49.8115L13.801 43.0882L16.1975 37.2802H34.9706L37.3672 43.0882ZM25.5842 14.7475L31.7585 29.7582H19.4097L25.5842 14.7475ZM4.61429 35.5827L2.99998 9.97125L20.2251 2L4.61429 35.5827Z" fill="currentColor"/>
</svg>
