<svg width="24" height="24" viewBox="0 0 24 24" fill="none" xmlns="http://www.w3.org/2000/svg">
<path fill-rule="evenodd" clip-rule="evenodd" d="M22.5 12C22.5 6.20475 17.7952 1.5 12 1.5C6.20475 1.5 1.5 6.20475 1.5 12C1.5 17.7952 6.20475 22.5 12 22.5C17.7952 22.5 22.5 17.7952 22.5 12ZM9.43964 13.5067C9.25964 13.1677 9.16964 12.792 9.16964 12.3802L16.7544 12.3795V11.7397C16.7544 11.1285 16.6711 10.527 16.5054 9.93448C16.3447 9.35403 16.0698 8.81145 15.6969 8.33848C15.3241 7.86523 14.8479 7.48273 14.2696 7.18948C13.6906 6.89773 12.9819 6.74998 12.1441 6.74998C11.4729 6.74357 10.8074 6.87291 10.1874 7.13023C9.60622 7.37108 9.08007 7.72754 8.64089 8.17798C8.20292 8.63275 7.85729 9.16813 7.62314 9.75448C7.37714 10.3605 7.25414 11.0167 7.25414 11.7217C7.24795 12.3918 7.36279 13.0575 7.59314 13.6867C7.80688 14.2721 8.13616 14.8085 8.56139 15.264C8.9933 15.7185 9.51721 16.0757 10.0981 16.3117C10.7034 16.5637 11.3791 16.6897 12.1246 16.6897C13.9209 16.6897 15.3181 16.0455 16.3156 14.7547L14.9581 13.7167C14.6381 14.1193 14.2539 14.4664 13.8211 14.7442C13.4079 15.0037 12.9226 15.1342 12.3631 15.1342C11.9558 15.1348 11.5512 15.0671 11.1661 14.934C10.7799 14.8012 10.4409 14.6152 10.1484 14.3752C9.85514 14.136 9.61964 13.8457 9.43964 13.5067ZM14.6484 9.84448C14.7658 10.1991 14.83 10.5691 14.8389 10.9425H9.16964C9.17249 10.6086 9.24371 10.2788 9.37889 9.97348C9.60726 9.44097 9.98752 8.98757 10.4721 8.66996C10.9568 8.35235 11.5242 8.18462 12.1036 8.18773C12.5574 8.18773 12.9526 8.25748 13.2924 8.39773C13.6141 8.52586 13.9036 8.72358 14.1399 8.97673C14.3684 9.22709 14.5417 9.52275 14.6484 9.84448Z" fill="currentColor"/>
</svg>
