<svg width="52" height="52" viewBox="0 0 52 52" fill="none" xmlns="http://www.w3.org/2000/svg">
<path fill-rule="evenodd" clip-rule="evenodd" d="M4 4H47.7139V47.7139H4V4ZM29.3201 29.951L25.9753 31.8876C27.1783 34.2645 29.6432 36.0838 33.4577 36.0838C37.3604 36.0838 40.2653 34.0593 40.2653 30.3617C40.2653 26.9286 38.2992 25.4031 34.8074 23.9064L33.7804 23.4664C32.0199 22.7032 31.257 22.2043 31.257 20.9719C31.257 19.9744 32.0199 19.2114 33.2231 19.2114C34.3969 19.2114 35.1595 19.7102 35.8639 20.9719L39.0623 18.9179C37.7126 16.5411 35.8347 15.6313 33.2231 15.6313C29.5551 15.6313 27.2075 17.9789 27.2075 21.06C27.2075 24.4052 29.1736 25.9898 32.1374 27.2514L33.1642 27.6917C35.0422 28.5131 36.1572 29.012 36.1572 30.4205C36.1572 31.5942 35.0719 32.4453 33.3696 32.4453C31.3451 32.4453 30.2007 31.389 29.3201 29.951ZM14.7946 30.1861L11.4492 32.2106C12.4176 34.2647 14.325 35.9663 17.6112 35.9663C21.25 35.9663 23.7441 34.0295 23.7441 29.7748V15.7491H19.636V29.7167C19.636 31.7706 18.785 32.2986 17.4351 32.2986C16.0269 32.2986 15.4398 31.3304 14.7946 30.1861Z" fill="currentColor"/>
</svg>
