<svg width="16" height="16" viewBox="0 0 16 16" fill="none" xmlns="http://www.w3.org/2000/svg">
<g clip-path="url(#clip0_536_371)">
<path d="M8.11816 0.356445C8.22524 0.367476 8.32959 0.395192 8.42969 0.435547L8.43066 0.433594L15.1064 2.95898L15.1084 2.96094L15.2607 3.03125C15.395 3.10622 15.5116 3.20876 15.6074 3.33008L15.6094 3.3291C15.6156 3.33658 15.6209 3.34493 15.627 3.35254C15.6287 3.35493 15.631 3.35696 15.6328 3.35938H15.6318C15.802 3.5775 15.8905 3.84763 15.8818 4.12402V12.2314C15.8787 12.4724 15.8036 12.7075 15.666 12.9053C15.5285 13.1029 15.3349 13.2551 15.1104 13.3418H15.1094L8.43457 15.9111C8.39891 15.9249 8.36157 15.9351 8.32422 15.9424C8.22839 15.998 8.1188 16.0332 8 16.0332C7.88043 16.0332 7.77008 15.9977 7.67383 15.9414C7.63738 15.9342 7.60123 15.9245 7.56641 15.9111L0.890625 13.3418C0.666012 13.2551 0.47254 13.1028 0.334961 12.9053C0.197361 12.7075 0.121293 12.4724 0.118164 12.2314V4.07129L0.124023 3.9707C0.146844 3.73659 0.238826 3.51353 0.389648 3.33105L0.43457 3.2832L0.549805 3.18262C0.652419 3.10482 0.768024 3.04643 0.890625 3.00586V3.00488L7.56641 0.435547V0.436523C7.70417 0.380353 7.85105 0.349647 8 0.349609L8.11816 0.356445ZM1.41895 12.1504L7.34961 14.4346V6.97266L1.41895 4.68945V12.1504ZM8.65039 6.97266V14.4346L14.582 12.1504V4.68848L8.65039 6.97266ZM2.58496 3.74609L8 5.83008L13.4629 3.72656L8 1.66016L2.58496 3.74609Z" fill="currentColor"/>
</g>
<defs>
</defs>
</svg>
