<svg width="52" height="52" viewBox="0 0 52 52" fill="none" xmlns="http://www.w3.org/2000/svg">
<path d="M18.4847 5.01847C17.0929 4.92618 15.7249 5.17521 14.5259 5.86748C12.9272 6.79051 11.8625 8.36605 11.2907 10.18C10.7188 11.994 10.5867 14.0846 10.7954 16.3675C10.8166 16.5987 10.8572 16.8398 10.8855 17.075C10.6672 17.1683 10.4374 17.2541 10.2262 17.3516C8.14473 18.3122 6.40112 19.4708 5.11608 20.873C3.83105 22.2752 3 23.9859 3 25.832C3 27.678 3.83105 29.3887 5.11608 30.7909C6.40112 32.1932 8.14473 33.3517 10.2262 34.3124C10.4374 34.4099 10.6672 34.4956 10.8855 34.5889C10.8572 34.8242 10.8166 35.0652 10.7954 35.2965C10.5867 37.5794 10.7188 39.6699 11.2907 41.4839C11.8625 43.2979 12.9272 44.8734 14.5259 45.7965C16.1246 46.7195 18.0203 46.8546 19.8772 46.4429C21.7341 46.0311 23.6099 45.0991 25.4826 43.7769C25.6722 43.643 25.8623 43.4879 26.0518 43.3459C26.2413 43.4879 26.4314 43.643 26.621 43.7769C28.4937 45.0991 30.3695 46.0311 32.2264 46.4429C34.0832 46.8546 35.9789 46.7195 37.5777 45.7965C39.1764 44.8734 40.2411 43.2979 40.8129 41.4839C41.3847 39.6699 41.5169 37.5794 41.3082 35.2965C41.287 35.0652 41.2463 34.8242 41.2181 34.5889C41.4363 34.4956 41.6662 34.4099 41.8774 34.3124C43.9588 33.3517 45.7024 32.1932 46.9875 30.7909C48.2725 29.3887 49.1036 27.678 49.1036 25.832C49.1036 23.9859 48.2725 22.2752 46.9875 20.873C45.7024 19.4708 43.9588 18.3122 41.8774 17.3516C41.6662 17.2541 41.4363 17.1683 41.2181 17.075C41.2463 16.8398 41.287 16.5987 41.3082 16.3675C41.5169 14.0846 41.3847 11.994 40.8129 10.18C40.2411 8.36606 39.1764 6.79051 37.5777 5.86748C35.9789 4.94445 34.0832 4.80932 32.2264 5.22108C30.3695 5.63284 28.4937 6.56482 26.621 7.88708C26.4314 8.02095 26.2413 8.17604 26.0518 8.31802C25.8623 8.17604 25.6722 8.02095 25.4826 7.88708C23.6099 6.56482 21.7341 5.63284 19.8772 5.22108C19.413 5.11814 18.9486 5.04924 18.4847 5.01847ZM18.2692 8.29872C18.5498 8.31985 18.8481 8.36641 19.1665 8.43701C20.4108 8.71292 21.9009 9.41131 23.4726 10.5049C22.1636 11.7466 20.8753 13.1593 19.6457 14.7402C17.664 15.0147 15.7974 15.4211 14.0692 15.9333C13.9083 14.0262 14.0463 12.3857 14.4294 11.1705C14.8216 9.92649 15.4086 9.16103 16.1724 8.72001C16.7453 8.38924 17.4275 8.23535 18.2692 8.29872ZM33.8343 8.29872C34.6761 8.23535 35.3582 8.38924 35.9311 8.72001C36.695 9.16103 37.282 9.92649 37.6742 11.1705C38.0572 12.3857 38.1953 14.0262 38.0343 15.9333C36.3062 15.4211 34.4396 15.0147 32.4579 14.7402C31.2282 13.1593 29.94 11.7466 28.631 10.5049C30.2027 9.41131 31.6928 8.71292 32.9371 8.43701C33.2555 8.36641 33.5537 8.31985 33.8343 8.29872ZM26.0518 12.592C26.6305 13.1271 27.2083 13.7221 27.7852 14.3447C27.211 14.3244 26.6371 14.3061 26.0518 14.3061C25.4664 14.3061 24.8926 14.3244 24.3184 14.3447C24.8953 13.7221 25.473 13.1271 26.0518 12.592ZM26.0518 17.5992C27.6399 17.5992 29.1792 17.6926 30.6602 17.85C31.5371 19.0539 32.3874 20.3402 33.1815 21.7156C33.9756 23.0911 34.6645 24.4706 35.2686 25.832C34.6645 27.1934 33.9756 28.5729 33.1815 29.9484C32.3874 31.3237 31.5371 32.6101 30.6602 33.8139C29.1792 33.9714 27.6399 34.0648 26.0518 34.0648C24.4636 34.0648 22.9243 33.9714 21.4434 33.8139C20.5665 32.6101 19.7161 31.3237 18.9221 29.9484C18.1279 28.5729 17.4391 27.1934 16.8349 25.832C17.4391 24.4706 18.1279 23.0911 18.9221 21.7156C19.7161 20.3402 20.5665 19.0539 21.4434 17.85C22.9243 17.6926 24.4636 17.5992 26.0518 17.5992ZM16.97 18.5865C16.6653 19.0736 16.3622 19.5621 16.0695 20.069C15.7769 20.5759 15.5061 21.0828 15.2366 21.5902C14.9863 20.7804 14.7609 19.9813 14.587 19.2136C15.3395 18.98 16.1427 18.7748 16.97 18.5865ZM35.1336 18.5865C35.9608 18.7748 36.7641 18.98 37.5166 19.2136C37.3427 19.9813 37.1173 20.7804 36.867 21.5902C36.5975 21.0828 36.3267 20.5759 36.034 20.069C35.7414 19.5621 35.4382 19.0736 35.1336 18.5865ZM11.4868 20.4035C11.9076 22.1577 12.4887 23.977 13.2427 25.832C12.4887 27.687 11.9076 29.5063 11.4868 31.2605C9.7555 30.4464 8.40466 29.5045 7.54411 28.5655C6.66282 27.6038 6.29311 26.714 6.29311 25.832C6.29311 24.9499 6.66282 24.0601 7.54411 23.0984C8.40466 22.1594 9.7555 21.2175 11.4868 20.4035ZM40.6167 20.4035C42.3481 21.2175 43.6989 22.1594 44.5595 23.0984C45.4407 24.0601 45.8105 24.9499 45.8105 25.832C45.8105 26.714 45.4407 27.6038 44.5595 28.5655C43.6989 29.5045 42.3481 30.4464 40.6167 31.2605C40.1959 29.5063 39.6148 27.687 38.8608 25.832C39.6148 23.977 40.1959 22.1577 40.6167 20.4035ZM26.0518 20.8923C23.3432 20.8923 21.1121 23.1234 21.1121 25.832C21.1121 28.5406 23.3432 30.7716 26.0518 30.7716C28.7604 30.7716 30.9915 28.5406 30.9915 25.832C30.9915 23.1234 28.7604 20.8923 26.0518 20.8923ZM26.0518 24.1854C26.9807 24.1854 27.6983 24.9031 27.6983 25.832C27.6983 26.7608 26.9807 27.4785 26.0518 27.4785C25.1229 27.4785 24.4052 26.7608 24.4052 25.832C24.4052 24.9031 25.1229 24.1854 26.0518 24.1854ZM15.2366 30.0738C15.5061 30.5812 15.7769 31.088 16.0695 31.5949C16.3622 32.1018 16.6653 32.5904 16.97 33.0775C16.1427 32.8892 15.3395 32.6839 14.587 32.4504C14.7609 31.6827 14.9863 30.8835 15.2366 30.0738ZM36.867 30.0738C37.1173 30.8835 37.3427 31.6827 37.5166 32.4504C36.7641 32.6839 35.9608 32.8892 35.1336 33.0775C35.4382 32.5904 35.7414 32.1018 36.034 31.5949C36.3267 31.088 36.5975 30.5812 36.867 30.0738ZM14.0692 35.7306C15.7974 36.2428 17.664 36.6492 19.6457 36.9237C20.8753 38.5046 22.1636 39.9173 23.4726 41.1591C21.9009 42.2526 20.4108 42.951 19.1665 43.2269C17.893 43.5093 16.9363 43.385 16.1724 42.9439C15.4086 42.5029 14.8216 41.7374 14.4294 40.4934C14.0463 39.2782 13.9083 37.6377 14.0692 35.7306ZM38.0343 35.7306C38.1953 37.6377 38.0572 39.2782 37.6742 40.4934C37.282 41.7374 36.695 42.5029 35.9311 42.9439C35.1672 43.385 34.2106 43.5093 32.9371 43.2269C31.6928 42.951 30.2027 42.2526 28.631 41.1591C29.94 39.9173 31.2282 38.5046 32.4579 36.9237C34.4396 36.6492 36.3062 36.2428 38.0343 35.7306ZM24.3184 37.3193C24.8926 37.3396 25.4664 37.3579 26.0518 37.3579C26.6371 37.3579 27.211 37.3396 27.7852 37.3193C27.2083 37.9418 26.6305 38.5369 26.0518 39.072C25.473 38.5369 24.8953 37.9418 24.3184 37.3193Z" fill="currentColor"/>
</svg>
