<svg width="24" height="24" viewBox="0 0 24 24" fill="none" xmlns="http://www.w3.org/2000/svg">
<path fill-rule="evenodd" clip-rule="evenodd" d="M15.3276 7.54199H8.6716C5.2976 7.54199 3.6096 7.54199 2.6616 8.52899C1.7136 9.51599 1.9366 11.04 2.3836 14.089L2.8056 16.981C3.1556 19.372 3.3306 20.568 4.2276 21.284C5.1256 22 6.4476 22 9.0946 22H14.9046C17.5506 22 18.8746 22 19.7716 21.284C20.6686 20.568 20.8436 19.372 21.1936 16.981L21.6156 14.089C22.0626 11.04 22.2856 9.51599 21.3376 8.52899C20.3896 7.54199 18.7016 7.54199 15.3276 7.54199ZM14.5806 15.794C15.1396 15.448 15.1396 14.552 14.5806 14.206L11.2096 12.116C10.6666 11.779 9.9996 12.217 9.9996 12.91V17.09C9.9996 17.783 10.6666 18.22 11.2096 17.884L14.5806 15.794Z" fill="currentColor"/>
<path opacity="0.4" d="M8.51046 2H15.4905C15.7225 2 15.9005 2 16.0565 2.015C17.1645 2.124 18.0715 2.79 18.4565 3.687H5.54346C5.92746 2.79 6.83446 2.124 7.94246 2.015C8.09946 2 8.27746 2 8.51046 2Z" fill="currentColor"/>
<path opacity="0.7" d="M6.30998 4.7229C4.91998 4.7229 3.77998 5.5629 3.39898 6.6759L3.37598 6.7459C3.77398 6.6259 4.18798 6.5469 4.60798 6.4929C5.68798 6.3549 7.05398 6.3549 8.63998 6.3549H15.532C17.118 6.3549 18.483 6.3549 19.564 6.4929C19.9806 6.54477 20.3926 6.62937 20.796 6.7459L20.773 6.6759C20.393 5.5619 19.252 4.7229 17.861 4.7229H6.30998Z" fill="currentColor"/>
</svg>
